<?xml version="1.0" encoding="UTF-8"?>
<svg id="Camada_2" data-name="Camada 2" xmlns="http://www.w3.org/2000/svg" viewBox="0 0 411.21 113">
  <defs>
    <style>
      .cls-1, .cls-2, .cls-3 {
        stroke-width: 0px;
      }

      .cls-2 {
        fill: #ff7f13;
      }

      .cls-3 {
        fill: #fff;
      }
    </style>
  </defs>
  <g id="Camada_1-2" data-name="Camada 1">
    <g id="pudos">
      <g>
        <path class="cls-3" d="m178.08,37.09c3.06,1.84,5.44,4.42,7.14,7.73,1.7,3.31,2.55,7.09,2.55,11.34s-.85,8.03-2.55,11.34c-1.7,3.31-4.08,5.89-7.14,7.73s-6.54,2.76-10.45,2.76c-5.21,0-9.55-1.64-13-4.93v22.26h-13.34v-60.15h11.55l.85,4.93c3.51-3.85,8.16-5.78,13.93-5.78,3.91,0,7.39.92,10.45,2.76Zm-6.37,26.76c1.87-1.95,2.8-4.52,2.8-7.69s-.93-5.74-2.8-7.69-4.28-2.93-7.22-2.93-5.34.99-7.18,2.97c-1.84,1.98-2.76,4.53-2.76,7.65s.92,5.66,2.76,7.65c1.84,1.98,4.23,2.97,7.18,2.97s5.35-.98,7.22-2.93Z"/>
        <path class="cls-3" d="m237.47,35.18v41.97h-11.55l-.85-4.84c-1.59,1.87-3.53,3.3-5.82,4.29-2.29.99-4.8,1.49-7.52,1.49-5.15,0-9.26-1.7-12.32-5.1-3.06-3.4-4.59-8.1-4.59-14.1v-23.7h13.34v22.94c0,2.72.67,4.84,2,6.37,1.33,1.53,3.16,2.29,5.48,2.29,2.55,0,4.6-.89,6.16-2.68,1.56-1.78,2.34-4.09,2.34-6.92v-22.01h13.34Z"/>
        <path class="cls-3" d="m291.5,17.67v59.47h-11.55l-.85-5.01c-3.57,3.91-8.21,5.86-13.93,5.86-3.91,0-7.38-.92-10.41-2.76-3.03-1.84-5.39-4.42-7.09-7.73-1.7-3.31-2.55-7.09-2.55-11.34s.85-8.03,2.55-11.34c1.7-3.31,4.06-5.89,7.09-7.73,3.03-1.84,6.5-2.76,10.41-2.76,5.15,0,9.49,1.61,13,4.84v-21.5h13.34Zm-15.97,46.18c1.87-1.95,2.8-4.52,2.8-7.69s-.93-5.74-2.8-7.69c-1.87-1.95-4.28-2.93-7.22-2.93s-5.34.99-7.18,2.97c-1.84,1.98-2.76,4.53-2.76,7.65s.92,5.66,2.76,7.65c1.84,1.98,4.23,2.97,7.18,2.97s5.35-.98,7.22-2.93Z"/>
        <path class="cls-3" d="m310.07,75.32c-3.48-1.84-6.16-4.4-8.03-7.69-1.87-3.28-2.8-7.11-2.8-11.47s.93-8.18,2.8-11.47c1.87-3.29,4.54-5.85,8.03-7.69,3.48-1.84,7.55-2.76,12.19-2.76s8.72.92,12.23,2.76c3.51,1.84,6.2,4.4,8.07,7.69,1.87,3.29,2.8,7.11,2.8,11.47s-.93,8.19-2.8,11.47c-1.87,3.29-4.56,5.85-8.07,7.69-3.51,1.84-7.59,2.76-12.23,2.76s-8.71-.92-12.19-2.76Zm19.33-11.51c1.81-1.98,2.72-4.53,2.72-7.65s-.91-5.66-2.72-7.65c-1.81-1.98-4.19-2.97-7.14-2.97s-5.24.99-7.05,2.97c-1.81,1.98-2.72,4.53-2.72,7.65s.91,5.66,2.72,7.65c1.81,1.98,4.16,2.97,7.05,2.97s5.32-.99,7.14-2.97Z"/>
        <path class="cls-2" d="m353.48,52.17c-1.44-1.36-2.17-3.09-2.17-5.18s.72-3.82,2.17-5.18c1.44-1.36,3.3-2.04,5.57-2.04s4.04.68,5.48,2.04c1.44,1.36,2.17,3.09,2.17,5.18s-.72,3.82-2.17,5.18c-1.44,1.36-3.27,2.04-5.48,2.04s-4.12-.68-5.57-2.04Zm11,13.47c1.42,1.39,2.12,3.22,2.12,5.48,0,1.87-.4,3.9-1.19,6.08-.79,2.18-2.29,5.62-4.5,10.32h-7.22l2.38-10.2c-1.47-.4-2.63-1.17-3.48-2.34-.85-1.16-1.27-2.56-1.27-4.21,0-2.15.71-3.89,2.12-5.22,1.42-1.33,3.26-2,5.52-2s4.11.69,5.52,2.08Z"/>
        <path class="cls-3" d="m372.3,72.64l5.1-9.18c2.04,1.25,4.4,2.21,7.09,2.89,2.69.68,5.37,1.02,8.03,1.02,3.68,0,5.52-.99,5.52-2.97,0-1.02-.51-1.78-1.53-2.29-1.02-.51-2.72-.85-5.1-1.02-5.32-.28-9.56-1.61-12.7-3.99-3.14-2.38-4.72-5.49-4.72-9.35,0-4.19,1.7-7.52,5.1-9.98,3.4-2.46,7.99-3.7,13.76-3.7,3.28,0,6.41.4,9.39,1.19,2.97.79,5.54,1.9,7.69,3.31l-5.18,8.92c-3.17-1.81-6.94-2.72-11.3-2.72s-6.46,1.02-6.46,3.06c0,.85.44,1.5,1.32,1.95.88.45,2.36.79,4.46,1.02,6,.45,10.58,1.81,13.72,4.08,3.14,2.27,4.72,5.44,4.72,9.52,0,4.31-1.73,7.69-5.18,10.15-3.46,2.46-8.24,3.7-14.36,3.7-7.42,0-13.88-1.87-19.37-5.61Z"/>
      </g>
      <g>
        <rect class="cls-2" width="113" height="113" rx="13.15" ry="13.15"/>
        <g>
          <path class="cls-1" d="m32.11,48.42c-1.25-1.18-1.88-2.67-1.88-4.49s.63-3.31,1.88-4.49c1.25-1.18,2.86-1.76,4.82-1.76s3.49.59,4.74,1.76c1.25,1.18,1.87,2.67,1.87,4.49s-.62,3.31-1.87,4.49c-1.25,1.18-2.83,1.76-4.74,1.76s-3.57-.59-4.82-1.76Zm9.52,11.65c1.22,1.2,1.84,2.78,1.84,4.74,0,1.62-.34,3.37-1.03,5.26-.69,1.89-1.99,4.86-3.9,8.93h-6.25l2.06-8.82c-1.27-.34-2.28-1.02-3.01-2.02s-1.1-2.22-1.1-3.64c0-1.86.61-3.37,1.84-4.52,1.22-1.15,2.82-1.73,4.78-1.73s3.55.6,4.78,1.8Z"/>
          <path class="cls-3" d="m48.39,66.14l4.41-7.94c1.76,1.08,3.81,1.91,6.14,2.5,2.33.59,4.64.88,6.95.88,3.19,0,4.78-.86,4.78-2.57,0-.88-.44-1.54-1.32-1.99-.88-.44-2.35-.73-4.41-.88-4.61-.24-8.27-1.4-10.99-3.46-2.72-2.06-4.08-4.75-4.08-8.09,0-3.63,1.47-6.51,4.41-8.64,2.94-2.13,6.91-3.2,11.91-3.2,2.84,0,5.55.35,8.12,1.03,2.57.69,4.79,1.64,6.65,2.87l-4.49,7.72c-2.75-1.57-6.01-2.35-9.78-2.35s-5.59.88-5.59,2.65c0,.73.38,1.3,1.14,1.69.76.39,2.05.69,3.86.88,5.19.39,9.15,1.57,11.87,3.53,2.72,1.96,4.08,4.71,4.08,8.24,0,3.73-1.5,6.65-4.49,8.79s-7.13,3.2-12.43,3.2c-6.42,0-12.01-1.62-16.76-4.85Z"/>
        </g>
      </g>
    </g>
  </g>
</svg>